<svg fill="none" xmlns="http://www.w3.org/2000/svg" viewBox="0 0 285.6 72.3" id="logo-head-xxl">
        <path id="Path_260" data-name="Path 260" d="M47.5,34V26.9a1.2,1.2,0,0,0-1.1-1.2,1.854,1.854,0,0,0-.7.2L17.4,45.5a4.943,4.943,0,0,1-6.8-1.2,4.678,4.678,0,0,1-.9-2.8V32a9.77,9.77,0,0,1,4.2-8l8.4-5.8a4.885,4.885,0,0,0,2.1-4V1.2A1.073,1.073,0,0,0,23.3,0a1.445,1.445,0,0,0-.7.2L16.7,4.3a4.885,4.885,0,0,0-2.1,4v3.4l-7.2,5A17.308,17.308,0,0,0,0,30.9V41.4A14.639,14.639,0,0,0,14.6,56.1,14.878,14.878,0,0,0,23,53.5L45.4,38A4.885,4.885,0,0,0,47.5,34Z" fill="#ffa600"></path>
        <path id="Path_261" data-name="Path 261" d="M39.1,12.6,16.7,28.1a4.885,4.885,0,0,0-2.1,4v7.1a1.155,1.155,0,0,0,1.2,1.2,1.854,1.854,0,0,0,.7-.2L44.7,20.7a4.943,4.943,0,0,1,6.8,1.2,4.678,4.678,0,0,1,.9,2.8V34a9.77,9.77,0,0,1-4.2,8l-7.5,5.2-.9.6h0a4.885,4.885,0,0,0-2.1,4v13A1.2,1.2,0,0,0,38.8,66a1.445,1.445,0,0,0,.7-.2l5.9-4.1a4.885,4.885,0,0,0,2.1-4V54.3l7.2-5a17.146,17.146,0,0,0,7.5-14.2V24.7A14.639,14.639,0,0,0,47.6,10,14.959,14.959,0,0,0,39.1,12.6Z" fill="#b3cb2d"></path>
        <path id="Path_262" data-name="Path 262" d="M82.2,33.1c0-10.1,7.6-17,17-17A15.226,15.226,0,0,1,112.4,23a.494.494,0,0,1-.1.7h-.1l-4,2a.663.663,0,0,1-.7-.2,9.986,9.986,0,0,0-8.3-4.4c-6.3,0-11.1,5-11.1,11.9S93,45,99.3,45a9.856,9.856,0,0,0,8.3-4.4.574.574,0,0,1,.7-.2l4,2a.443.443,0,0,1,.2.7h0A15,15,0,0,1,99.3,50C89.8,50.1,82.2,43.2,82.2,33.1Z" fill="#191715"></path>
        <path id="Path_263" data-name="Path 263" d="M131.8,47a10.2,10.2,0,0,1-7.7,3.2c-3.9,0-8.3-2.6-8.3-7.9,0-5.5,4.4-7.8,8.3-7.8a10.236,10.236,0,0,1,7.6,2.9h.1V34c0-2.8-2.3-4.4-5.6-4.4a9.806,9.806,0,0,0-6.7,2.7.454.454,0,0,1-.5,0v-.1l-1.8-3c-.1-.1-.1-.3.1-.5a14.751,14.751,0,0,1,9.8-3.7c5.3,0,9.9,2.2,9.9,8.6V49.1a.319.319,0,0,1-.3.3h-4.5a.265.265,0,0,1-.3-.3h0V47Zm0-5.2a1.268,1.268,0,0,0-.1-.6,6.593,6.593,0,0,0-5.5-3.1c-2.9,0-5.1,1.7-5.1,4.3s2.2,4.2,5.1,4.2a6.875,6.875,0,0,0,5.5-2.4,1.854,1.854,0,0,0,.2-.7V41.8Z" fill="#191715"></path>
        <path id="Path_264" data-name="Path 264" d="M144.8,44V30.2h-3.6c-.2,0-.3-.2-.4-.3V26a.43.43,0,0,1,.4-.4h3.6V19.4a.265.265,0,0,1,.3-.3h4.6a.265.265,0,0,1,.3.3h0v6.2h4.5a.446.446,0,0,1,.4.3h0v3.9c0,.2-.2.3-.4.3H150V42.6c0,1.6.8,2.8,2.3,2.8a3.936,3.936,0,0,0,2.1-.6.188.188,0,0,1,.3,0v.1l1.1,3.5c0,.1,0,.2-.1.2a6.505,6.505,0,0,1-4.8,1.4C146.9,50.1,144.8,48,144.8,44Z" fill="#191715"></path>
        <path id="Path_265" data-name="Path 265" d="M170.1,25c7.2,0,11.8,5.5,11.8,13v.8a.43.43,0,0,1-.4.4H163.7a.215.215,0,0,0-.2.2h0a7.159,7.159,0,0,0,7.6,6.3,10.7,10.7,0,0,0,6.6-2.4.3.3,0,0,1,.4,0h0l2.1,3a.187.187,0,0,1,0,.3,14.483,14.483,0,0,1-9.5,3.3c-7.2,0-12.5-5-12.5-12.5A11.855,11.855,0,0,1,170.1,25Zm-6.3,10.6h12.8a.265.265,0,0,0,.3-.3h0a6.368,6.368,0,0,0-6.7-6,6.5,6.5,0,0,0-6.7,6q-.15.3.3.3Z" fill="#191715"></path>
        <path id="Path_266" data-name="Path 266" d="M203.2,34.6c0-3.7-1.9-4.9-4.8-4.9a7.772,7.772,0,0,0-6,3.1.367.367,0,0,0-.1.3V49.3a.265.265,0,0,1-.3.3h-4.6a.265.265,0,0,1-.3-.3V26a.265.265,0,0,1,.3-.3H192a.265.265,0,0,1,.3.3v2.8h.1a11.278,11.278,0,0,1,8.3-3.7c5.1,0,7.7,2.8,7.7,7.7V49.4a.265.265,0,0,1-.3.3h-4.6a.265.265,0,0,1-.3-.3Z" fill="#191715"></path>
        <path id="Path_267" data-name="Path 267" d="M240.2,35.4H251a.645.645,0,0,1,.6.6h0v3.3a.645.645,0,0,1-.6.6H240.2a.645.645,0,0,1-.6-.6V36Q239.75,35.4,240.2,35.4Z" fill="#191715"></path>
        <path id="Path_268" data-name="Path 268" d="M267,36.8l-9,12.6a.367.367,0,0,1-.3.1h-6.1a.265.265,0,0,1-.3-.3c0-.1,0-.1.1-.2l11.9-16.3v-.2L252.1,17a.247.247,0,0,1,.1-.4c.1,0,.1-.1.2-.1h6.1a.367.367,0,0,1,.3.1l8.3,11.8c0,.1.1.1.2,0h0l8.2-11.8a.367.367,0,0,1,.3-.1H282a.265.265,0,0,1,.3.3c0,.1,0,.1-.1.2L271,32.5v.2L282.9,49a.348.348,0,0,1-.1.5c-.1,0-.1.1-.2.1h-6.1c-.1,0-.2-.1-.3-.1l-9-12.6c0-.1-.1-.1-.2-.1Z" fill="#191715"></path>
        <path id="Path_269" data-name="Path 269" d="M229.7,47a10.2,10.2,0,0,1-7.7,3.2c-3.9,0-8.3-2.6-8.3-7.9,0-5.5,4.4-7.8,8.3-7.8a9.762,9.762,0,0,1,7.7,3.1V34c0-2.8-2.3-4.4-5.6-4.4a9.806,9.806,0,0,0-6.7,2.7.454.454,0,0,1-.5,0l-.1-.1-1.8-3c-.1-.2-.1-.3.1-.5a14.173,14.173,0,0,1,9.8-3.6c5.3,0,9.9,2.2,9.9,8.6V49.2a.265.265,0,0,1-.3.3H230a.265.265,0,0,1-.3-.3h0Zm0-5.3a1.268,1.268,0,0,0-.1-.6A6.633,6.633,0,0,0,224,38c-2.9,0-5.1,1.7-5.1,4.3s2.2,4.2,5.1,4.2a7.2,7.2,0,0,0,5.5-2.4.952.952,0,0,0,.2-.7V41.7Z" fill="#191715"></path>
        <g id="Group_372" data-name="Group 372">
          <g id="Group_371" data-name="Group 371">
            <path id="Path_270" data-name="Path 270" d="M86.3,72V67l-4.1-7.1H84l3.1,5.4,3.1-5.4h1.7L87.8,67v5Z" fill="#191715"></path>
            <path id="Path_271" data-name="Path 271" d="M97,72.3A3.976,3.976,0,0,1,93.2,70a5.1,5.1,0,0,1-.5-2.5,6.175,6.175,0,0,1,.5-2.5,4.978,4.978,0,0,1,1.5-1.7,4.383,4.383,0,0,1,2.3-.6,4.751,4.751,0,0,1,2.4.6,3.53,3.53,0,0,1,1.5,1.7,5.1,5.1,0,0,1,.5,2.5,6.175,6.175,0,0,1-.5,2.5,4.978,4.978,0,0,1-1.5,1.7A4.5,4.5,0,0,1,97,72.3Zm0-1.4a2.583,2.583,0,0,0,2.1-.9,3.727,3.727,0,0,0,.7-2.5,4.093,4.093,0,0,0-.7-2.5,2.583,2.583,0,0,0-2.1-.9,2.353,2.353,0,0,0-2.5,1.6,4.844,4.844,0,0,0-.3,1.8,4.093,4.093,0,0,0,.7,2.5A2.927,2.927,0,0,0,97,70.9Z" fill="#191715"></path>
            <path id="Path_272" data-name="Path 272" d="M106.7,72.3a3.339,3.339,0,0,1-1.5-.3,2.552,2.552,0,0,1-1-.7,6.07,6.07,0,0,1-.7-1,2.663,2.663,0,0,1-.3-1.2,4.485,4.485,0,0,1-.1-1.1V63h1.5v4.6a4.869,4.869,0,0,0,.1,1.2,3.582,3.582,0,0,0,.4,1.1,2.047,2.047,0,0,0,.8.8,2.133,2.133,0,0,0,1.2.3,2.959,2.959,0,0,0,1-.2,1.555,1.555,0,0,0,.8-.6,3.128,3.128,0,0,0,.5-1,5.9,5.9,0,0,0,.2-1.4l1,.3a5.555,5.555,0,0,1-.5,2.3,4.708,4.708,0,0,1-1.3,1.5A3.457,3.457,0,0,1,106.7,72.3Zm3.1-.3V69.6h-.2V62.9h1.5V72Z" fill="#191715"></path>
            <path id="Path_273" data-name="Path 273" d="M113.5,72V62.9h1.3v2.2l-.2-.3a2.994,2.994,0,0,1,.4-.8,3.394,3.394,0,0,1,.6-.6,2.01,2.01,0,0,1,.8-.4,2.92,2.92,0,0,1,.9-.2,2.769,2.769,0,0,1,.9.1v1.4a3.4,3.4,0,0,0-1-.1,1.777,1.777,0,0,0-1,.4,2.7,2.7,0,0,0-.7.8,1.689,1.689,0,0,0-.3,1,3.75,3.75,0,0,0-.1,1.1V72Z" fill="#191715"></path>
            <path id="Path_274" data-name="Path 274" d="M122.3,72l4.1-12.2h2.1L132.6,72H131l-3.8-11.3h.5L123.9,72Zm2-2.8V67.8h6.3v1.4Z" fill="#191715"></path>
            <path id="Path_275" data-name="Path 275" d="M137.5,72.3A3.339,3.339,0,0,1,136,72a2.552,2.552,0,0,1-1-.7,6.07,6.07,0,0,1-.7-1,2.663,2.663,0,0,1-.3-1.2,4.484,4.484,0,0,1-.1-1.1V63h1.5v4.6a4.868,4.868,0,0,0,.1,1.2,3.582,3.582,0,0,0,.4,1.1,2.047,2.047,0,0,0,.8.8,2.133,2.133,0,0,0,1.2.3,2.959,2.959,0,0,0,1-.2,1.555,1.555,0,0,0,.8-.6,3.128,3.128,0,0,0,.5-1,5.9,5.9,0,0,0,.2-1.4l1,.3a5.555,5.555,0,0,1-.5,2.3,4.708,4.708,0,0,1-1.3,1.5A3.457,3.457,0,0,1,137.5,72.3Zm3.1-.3V69.6h-.2V62.9h1.5V72Z" fill="#191715"></path>
            <path id="Path_276" data-name="Path 276" d="M143.3,64.1V62.9h6.1v1.2Zm6.1,7.9a4.329,4.329,0,0,1-1.6.1,3.194,3.194,0,0,1-1.4-.3,1.962,1.962,0,0,1-.9-.9,2.279,2.279,0,0,1-.3-1.1V60.3h1.5v9.1a1.445,1.445,0,0,0,.2.7,1,1,0,0,0,1,.6,4.569,4.569,0,0,0,1.6-.1V72Z" fill="#191715"></path>
            <path id="Path_277" data-name="Path 277" d="M155.1,72.3a4.143,4.143,0,0,1-2.3-.6,3.53,3.53,0,0,1-1.5-1.7,5.1,5.1,0,0,1-.5-2.5,6.175,6.175,0,0,1,.5-2.5,4.978,4.978,0,0,1,1.5-1.7,4.383,4.383,0,0,1,2.3-.6,4.751,4.751,0,0,1,2.4.6A3.53,3.53,0,0,1,159,65a5.1,5.1,0,0,1,.5,2.5A6.175,6.175,0,0,1,159,70a4.978,4.978,0,0,1-1.5,1.7A4.5,4.5,0,0,1,155.1,72.3Zm0-1.4a2.583,2.583,0,0,0,2.1-.9,3.727,3.727,0,0,0,.7-2.5,4.093,4.093,0,0,0-.7-2.5,2.321,2.321,0,0,0-2.1-.9,2.353,2.353,0,0,0-2.5,1.6,4.844,4.844,0,0,0-.3,1.8A4.093,4.093,0,0,0,153,70,2.927,2.927,0,0,0,155.1,70.9Z" fill="#191715"></path>
            <path id="Path_278" data-name="Path 278" d="M161.4,72V62.9h1.3v2.4h.2V72Zm5.5,0V66.2a2.544,2.544,0,0,0-.5-1.6A1.816,1.816,0,0,0,165,64a1.678,1.678,0,0,0-1.4.6,2.545,2.545,0,0,0-.5,1.6l-.8-.5a2.934,2.934,0,0,1,.4-1.6,3.838,3.838,0,0,1,1.1-1.1,3.4,3.4,0,0,1,3.2,0,2.905,2.905,0,0,1,1.1,1.1,4.711,4.711,0,0,1,.4,1.7v6.1h-1.6Zm5.4,0V66.2a2.544,2.544,0,0,0-.5-1.6,1.678,1.678,0,0,0-1.4-.6,3.553,3.553,0,0,0-1,.2,1.575,1.575,0,0,0-.7.7,2.269,2.269,0,0,0-.3,1.3l-.8-.3a3.287,3.287,0,0,1,.4-1.7,2.892,2.892,0,0,1,1.1-1.1,3.768,3.768,0,0,1,1.6-.4,2.656,2.656,0,0,1,2.2.9,3.566,3.566,0,0,1,.8,2.3v6.2h-1.4Z" fill="#191715"></path>
            <path id="Path_279" data-name="Path 279" d="M179.9,72.3a4.143,4.143,0,0,1-2.3-.6,3.53,3.53,0,0,1-1.5-1.7,5.1,5.1,0,0,1-.5-2.5,6.175,6.175,0,0,1,.5-2.5,4.978,4.978,0,0,1,1.5-1.7,4.383,4.383,0,0,1,2.3-.6,4.751,4.751,0,0,1,2.4.6,3.53,3.53,0,0,1,1.5,1.7,5.1,5.1,0,0,1,.5,2.5,6.175,6.175,0,0,1-.5,2.5,4.978,4.978,0,0,1-1.5,1.7A4.5,4.5,0,0,1,179.9,72.3Zm0-1.4A2.583,2.583,0,0,0,182,70a3.727,3.727,0,0,0,.7-2.5A4.093,4.093,0,0,0,182,65a2.321,2.321,0,0,0-2.1-.9,2.353,2.353,0,0,0-2.5,1.6,4.844,4.844,0,0,0-.3,1.8,4.093,4.093,0,0,0,.7,2.5A2.927,2.927,0,0,0,179.9,70.9Z" fill="#191715"></path>
            <path id="Path_280" data-name="Path 280" d="M185.2,64.1V62.9h6.1v1.2Zm6.1,7.9a4.329,4.329,0,0,1-1.6.1,3.194,3.194,0,0,1-1.4-.3,1.962,1.962,0,0,1-.9-.9,2.279,2.279,0,0,1-.3-1.1V60.3h1.5v9.1a1.445,1.445,0,0,0,.2.7,1,1,0,0,0,1,.6,4.569,4.569,0,0,0,1.6-.1V72Z" fill="#191715"></path>
            <path id="Path_281" data-name="Path 281" d="M193.3,61.3V59.7h1.5v1.6Zm0,10.7V62.9h1.5V72Z" fill="#191715"></path>
            <path id="Path_282" data-name="Path 282" d="M199.8,72l-3.3-9.1H198l2.6,7.2,2.6-7.2h1.5L201.4,72Z" fill="#191715"></path>
            <path id="Path_283" data-name="Path 283" d="M210.1,72.3a4.143,4.143,0,0,1-2.3-.6,4.363,4.363,0,0,1-1.6-1.7,4.871,4.871,0,0,1-.6-2.5,6.688,6.688,0,0,1,.5-2.6,4.125,4.125,0,0,1,1.5-1.7,4.383,4.383,0,0,1,2.3-.6,4.143,4.143,0,0,1,2.3.6,4.529,4.529,0,0,1,1.5,1.8,5.046,5.046,0,0,1,.4,2.8h-1.5v-.5a3.56,3.56,0,0,0-.7-2.5,2.629,2.629,0,0,0-2-.8,2.583,2.583,0,0,0-2.1.9,4.023,4.023,0,0,0-.7,2.6,3.727,3.727,0,0,0,.7,2.5,2.583,2.583,0,0,0,2.1.9,2.587,2.587,0,0,0,2.6-1.6l1.4.5a4.944,4.944,0,0,1-1.6,1.9A3.593,3.593,0,0,1,210.1,72.3Zm-3.3-4.4V66.7h6.7v1.2Z" fill="#191715"></path>
            <path id="Path_284" data-name="Path 284" d="M219.5,72V59.9H221l6.3,9.5V59.9h1.5V72h-1.5L221,62.5V72Z" fill="#191715"></path>
            <path id="Path_285" data-name="Path 285" d="M235.2,72.3a4.143,4.143,0,0,1-2.3-.6,4.363,4.363,0,0,1-1.6-1.7,4.871,4.871,0,0,1-.6-2.5,6.688,6.688,0,0,1,.5-2.6,4.125,4.125,0,0,1,1.5-1.7,4.383,4.383,0,0,1,2.3-.6,4.143,4.143,0,0,1,2.3.6,4.529,4.529,0,0,1,1.5,1.8,5.046,5.046,0,0,1,.4,2.8h-1.5v-.5a3.56,3.56,0,0,0-.7-2.5,2.629,2.629,0,0,0-2-.8,2.583,2.583,0,0,0-2.1.9,4.023,4.023,0,0,0-.7,2.6,3.727,3.727,0,0,0,.7,2.5,2.583,2.583,0,0,0,2.1.9,2.587,2.587,0,0,0,2.6-1.6l1.4.5a4.944,4.944,0,0,1-1.6,1.9A3.593,3.593,0,0,1,235.2,72.3Zm-3.3-4.4V66.7h6.7v1.2Z" fill="#191715"></path>
            <path id="Path_286" data-name="Path 286" d="M240.3,64.1V62.9h6.1v1.2Zm6.1,7.9a4.329,4.329,0,0,1-1.6.1,3.194,3.194,0,0,1-1.4-.3,1.962,1.962,0,0,1-.9-.9,2.279,2.279,0,0,1-.3-1.1V60.3h1.5v9.1a1.445,1.445,0,0,0,.2.7,1,1,0,0,0,1,.6,4.569,4.569,0,0,0,1.6-.1V72Z" fill="#191715"></path>
            <path id="Path_287" data-name="Path 287" d="M250.2,72l-2.8-9.1h1.5l2,6.7,2.1-6.7h1.3l2,6.7,2-6.7h1.5L257,72h-1.3l-2.2-6.9L251.3,72Z" fill="#191715"></path>
            <path id="Path_288" data-name="Path 288" d="M265.3,72.3a4.142,4.142,0,0,1-2.3-.6,3.53,3.53,0,0,1-1.5-1.7,5.1,5.1,0,0,1-.5-2.5,6.175,6.175,0,0,1,.5-2.5,4.978,4.978,0,0,1,1.5-1.7,4.383,4.383,0,0,1,2.3-.6,4.751,4.751,0,0,1,2.4.6,3.53,3.53,0,0,1,1.5,1.7,5.1,5.1,0,0,1,.5,2.5,6.175,6.175,0,0,1-.5,2.5,4.978,4.978,0,0,1-1.5,1.7A4.5,4.5,0,0,1,265.3,72.3Zm0-1.4a2.583,2.583,0,0,0,2.1-.9,3.727,3.727,0,0,0,.7-2.5,4.093,4.093,0,0,0-.7-2.5,2.321,2.321,0,0,0-2.1-.9,2.353,2.353,0,0,0-2.5,1.6,4.845,4.845,0,0,0-.3,1.8,4.093,4.093,0,0,0,.7,2.5A2.927,2.927,0,0,0,265.3,70.9Z" fill="#191715"></path>
            <path id="Path_289" data-name="Path 289" d="M271.5,72V62.9h1.3v2.2l-.2-.3a3,3,0,0,1,.4-.8l.6-.6a2.01,2.01,0,0,1,.8-.4,2.92,2.92,0,0,1,.9-.2,2.769,2.769,0,0,1,.9.1v1.4a3.4,3.4,0,0,0-1-.1,1.777,1.777,0,0,0-1,.4,2.7,2.7,0,0,0-.7.8,1.689,1.689,0,0,0-.3,1,3.749,3.749,0,0,0-.1,1.1V72Z" fill="#191715"></path>
            <path id="Path_290" data-name="Path 290" d="M277.8,72V59.8h1.5v7.4l3.8-4.4h2l-4,4.6,4.5,4.6h-2.1l-4.1-4.4V72Z" fill="#191715"></path>
          </g>
        </g>      
      
    </svg>